<svg width="24" height="24" class="hidden">
    <symbol xmlns="http://www.w3.org/2000/svg" viewBox="0 0 24 24" id="fb">
        <path d="M12 2c5.514 0 10 4.486 10 10s-4.486 10-10 10S2 17.514 2 12 6.486 2 12 2zm0-2C5.373 0 0 5.373 0 12s5.373 12 12 12 12-5.373 12-12S18.627 0 12 0zm-2 10H8v2h2v6h3v-6h1.82l.18-2h-2v-.833c0-.478.096-.667.558-.667H15V6h-2.404C10.798 6 10 6.792 10 8.308V10z"></path>
    </symbol>
    <symbol xmlns="http://www.w3.org/2000/svg" viewBox="0 0 24 24" id="instagramm">
        <path d="M17.833 6.595v1.476a.43.43 0 0 1-.435.429h-1.465a.433.433 0 0 1-.434-.429V6.595c0-.237.195-.428.434-.428h1.465a.43.43 0 0 1 .435.428zM12 14.093a2.028 2.028 0 0 0 2.028-2.029 2.028 2.028 0 1 0-4.056 0c0 1.121.907 2.029 2.028 2.029zM24 12c0 6.627-5.373 12-12 12S0 18.627 0 12 5.373 0 12 0s12 5.373 12 12zm-5-1.75h-3.953c.316.533.508 1.149.508 1.813a3.564 3.564 0 0 1-7.127 0c0-.665.191-1.281.509-1.813H5v5.996C5 17.767 6.27 19 7.791 19h8.454A2.755 2.755 0 0 0 19 16.246V10.25zm-7.009 4.559a2.748 2.748 0 0 0 2.745-2.746 2.74 2.74 0 0 0-1.614-2.5 2.732 2.732 0 0 0-2.94.437 2.739 2.739 0 0 0-.938 2.063 2.751 2.751 0 0 0 2.747 2.746zM19 7.754A2.755 2.755 0 0 0 16.245 5H9.083v2.917H8.5V5h-.583v2.917h-.584V5.045a2.786 2.786 0 0 0-.583.157v2.715h-.583V5.524A2.738 2.738 0 0 0 5 7.754v1.913h4.359a3.552 3.552 0 0 1 5.263 0H19V7.754z"></path>
    </symbol>
    <symbol xmlns="http://www.w3.org/2000/svg" viewBox="0 0 24 24" id="twitter">
        <path d="M12 2c5.514 0 10 4.486 10 10s-4.486 10-10 10S2 17.514 2 12 6.486 2 12 2zm0-2C5.373 0 0 5.373 0 12s5.373 12 12 12 12-5.373 12-12S18.627 0 12 0zm6.5 8.778a4.928 4.928 0 0 1-1.414.388 2.473 2.473 0 0 0 1.083-1.362 4.926 4.926 0 0 1-1.564.597 2.464 2.464 0 0 0-4.195 2.245 6.993 6.993 0 0 1-5.074-2.572 2.465 2.465 0 0 0 .762 3.287 2.457 2.457 0 0 1-1.114-.308c-.027 1.14.791 2.207 1.975 2.445a2.467 2.467 0 0 1-1.112.042 2.465 2.465 0 0 0 2.3 1.709A4.955 4.955 0 0 1 6.5 16.27a6.963 6.963 0 0 0 3.773 1.106c4.572 0 7.154-3.861 6.998-7.324.482-.346.899-.78 1.229-1.274z"></path>
    </symbol>
</svg>